<svg width="18" height="24" viewBox="0 0 18 24" fill="none" xmlns="http://www.w3.org/2000/svg">
<path fill-rule="evenodd" clip-rule="evenodd" d="M9 23.1466L9.65773 22.5749C15.1887 17.7676 18 13.5701 18 9.8804C18 4.65525 13.9029 0.921875 9 0.921875C4.09705 0.921875 0 4.65525 0 9.8804C0 13.5701 2.81131 17.7676 8.34227 22.5749L9 23.1466ZM9 20.4947C4.30661 16.2843 2 12.7165 2 9.8804C2 5.79591 5.16411 2.91266 9 2.91266C12.8359 2.91266 16 5.79591 16 9.8804C16 12.7165 13.6934 16.2843 9 20.4947ZM9 4.90344C11.7614 4.90344 14 7.1317 14 9.8804C14 12.6291 11.7614 14.8574 9 14.8574C6.23858 14.8574 4 12.6291 4 9.8804C4 7.1317 6.23858 4.90344 9 4.90344ZM6 9.8804C6 8.23118 7.34315 6.89422 9 6.89422C10.6569 6.89422 12 8.23118 12 9.8804C12 11.5296 10.6569 12.8666 9 12.8666C7.34315 12.8666 6 11.5296 6 9.8804Z" fill="#434040"/>
</svg>
