<svg width="16" height="16" viewBox="0 0 16 16" fill="none" xmlns="http://www.w3.org/2000/svg">
<path fill-rule="evenodd" clip-rule="evenodd" d="M0.333374 7.96309C0.333374 3.74153 3.77021 0.327148 8.00003 0.327148C12.2298 0.327148 15.6667 3.74153 15.6667 7.96309C15.6667 12.1847 12.2298 15.599 8.00003 15.599C3.77021 15.599 0.333374 12.1847 0.333374 7.96309ZM8.00003 2.32715C4.86606 2.32715 2.33337 4.8548 2.33337 7.96309C2.33337 11.0714 4.86606 13.599 8.00003 13.599C11.134 13.599 13.6667 11.0714 13.6667 7.96309C13.6667 4.8548 11.134 2.32715 8.00003 2.32715Z" fill="#434040"/>
<path d="M6.00003 4.99978H8.00003V9.99978H6.00003V4.99978Z" fill="#434040"/>
<path d="M8.00003 7.99978H10V9.99978H8.00003V7.99978Z" fill="#434040"/>
</svg>
