<svg width="11" height="20" viewBox="0 0 11 20" fill="none" xmlns="http://www.w3.org/2000/svg">
<path d="M3.06265 11.2891C2.98608 11.2891 1.30162 11.2891 0.535963 11.2891C0.12761 11.2891 0 11.1389 0 10.7635C0 9.7622 0 8.73592 0 7.73467C0 7.33417 0.153132 7.20901 0.535963 7.20901H3.06265C3.06265 7.13392 3.06265 5.6821 3.06265 5.00626C3.06265 4.00501 3.2413 3.05382 3.75174 2.17772C4.2877 1.2766 5.05336 0.675845 6.0232 0.325407C6.66125 0.100125 7.2993 0 7.9884 0H10.4896C10.8469 0 11 0.150188 11 0.500626V3.35419C11 3.70463 10.8469 3.85482 10.4896 3.85482C9.80046 3.85482 9.11137 3.85482 8.42227 3.87985C7.73318 3.87985 7.37587 4.20526 7.37587 4.90613C7.35035 5.65707 7.37587 6.38298 7.37587 7.15895H10.3364C10.7448 7.15895 10.8979 7.30914 10.8979 7.70964V10.7384C10.8979 11.1389 10.7703 11.2641 10.3364 11.2641C9.41763 11.2641 7.45244 11.2641 7.37587 11.2641V19.4243C7.37587 19.8498 7.24826 20 6.78886 20C5.71694 20 4.67053 20 3.59861 20C3.21578 20 3.06265 19.8498 3.06265 19.4743C3.06265 16.8461 3.06265 11.3642 3.06265 11.2891Z" fill="white"/>
</svg>
