<svg width="40" height="40" viewBox="0 0 40 40" fill="none" xmlns="http://www.w3.org/2000/svg">
<path fill-rule="evenodd" clip-rule="evenodd" d="M0 16C0 24.8366 7.16344 32 16 32C19.6975 32 23.102 30.7458 25.8114 28.6397L36.5859 39.4142L39.4143 36.5857L28.6398 25.8112C30.7459 23.1019 32 19.6974 32 16C32 7.16344 24.8366 0 16 0C7.16344 0 0 7.16344 0 16ZM16 28C22.6274 28 28 22.6274 28 16C28 9.37259 22.6274 4 16 4C9.37257 4 3.99999 9.37259 3.99999 16C3.99999 22.6274 9.37257 28 16 28ZM14 8V14H8.00001V18H14V24H18V18H24V14H18V8H14Z" fill="#434040"/>
</svg>
