<svg width="16" height="21" viewBox="0 0 16 21" fill="none" xmlns="http://www.w3.org/2000/svg">
<path fill-rule="evenodd" clip-rule="evenodd" d="M3 5.4977V8.48387H2C0.931649 8.48387 0 9.25666 0 10.3087V18.6037C0 19.6557 0.931649 20.4285 2 20.4285H14C15.0684 20.4285 16 19.6557 16 18.6037V10.3087C16 9.25666 15.0684 8.48387 14 8.48387H13V5.4977C13 2.74901 10.7614 0.520752 8 0.520752C5.23858 0.520752 3 2.74901 3 5.4977ZM11 5.4977V8.48387H5V5.4977C5 3.84848 6.34315 2.51153 8 2.51153C9.65685 2.51153 11 3.84848 11 5.4977ZM2 18.4378V10.4746H14V18.4378H2ZM9 14.4562C9 15.0059 8.55229 15.4516 8 15.4516C7.44772 15.4516 7 15.0059 7 14.4562C7 13.9065 7.44772 13.4608 8 13.4608C8.55229 13.4608 9 13.9065 9 14.4562Z" fill="#E4E4E4"/>
</svg>
