<svg width="286" height="71" viewBox="0 0 286 71" fill="none" xmlns="http://www.w3.org/2000/svg">
<path d="M42.3564 4.45166C43.304 4.40544 44.0667 4.38232 44.6445 4.38232C47.3717 4.38232 49.4749 4.729 50.9541 5.42236C52.7337 6.23128 54.2129 7.73356 55.3916 9.9292C56.3623 11.8013 56.8477 13.604 56.8477 15.3374C56.8477 20.63 54.2129 26.2116 48.9434 32.082C44.7832 36.7044 40.1724 40.7028 35.1108 44.0771C28.755 48.3066 23.1388 50.4214 18.2622 50.4214C16.0666 50.4214 14.2869 49.7743 12.9233 48.48C11.5597 47.1857 10.8779 45.4408 10.8779 43.2451C10.8779 41.9046 11.0628 40.5757 11.4326 39.2583L3.45898 47.9946C2.85807 48.6649 2.26872 49 1.69092 49C0.697103 49 0.200195 48.5493 0.200195 47.6479C0.200195 47.3244 0.338867 46.8853 0.616211 46.3306C1.35579 44.7358 6.52132 38.7383 16.1128 28.3379L33.8281 9.09717C29.4831 9.88298 25.8314 10.8537 22.873 12.0093C19.9147 13.1418 18.0426 13.708 17.2568 13.708C16.1937 13.708 15.6621 13.3613 15.6621 12.668C15.6621 12.0439 17.8115 10.9115 22.1104 9.27051C26.4092 7.62956 31.7134 6.23128 38.0229 5.07568L40.0337 3.23828C41.0275 2.33691 41.6862 1.88623 42.0098 1.88623C42.6338 1.88623 42.9458 2.29069 42.9458 3.09961C42.9458 3.37695 42.7493 3.82764 42.3564 4.45166ZM39.8604 8.16113L17.1182 32.8794C15.2692 34.9132 14.0905 36.3577 13.582 37.2129C12.7038 38.7152 12.2646 40.5063 12.2646 42.5864C12.2646 45.7065 13.9403 47.2666 17.2915 47.2666C21.2205 47.2666 26.2127 45.279 32.2681 41.3037C38.1154 37.444 43.1769 32.9487 47.4526 27.8179C52.0981 22.2479 54.4209 17.4753 54.4209 13.5C54.4209 9.47852 51.9132 7.46777 46.8979 7.46777C44.6792 7.46777 42.3333 7.69889 39.8604 8.16113ZM70.8882 22.895C69.7788 22.895 69.2241 22.3288 69.2241 21.1963C69.2241 20.2487 69.7904 19.3936 70.9229 18.6309C71.9398 17.9375 72.9567 17.5908 73.9736 17.5908C75.1755 17.5908 75.7764 18.2495 75.7764 19.5669C75.7764 20.5145 75.1755 21.3234 73.9736 21.9937C72.9336 22.5946 71.9051 22.895 70.8882 22.895ZM55.5649 46.9199C55.5649 47.5439 56.2352 47.856 57.5757 47.856C57.8761 47.856 58.0264 48.0409 58.0264 48.4106C58.0264 48.8498 57.2637 49.0693 55.7383 49.0693C54.0049 49.0693 53.1382 48.2373 53.1382 46.5732C53.1382 44.6318 55.7152 40.5757 60.8691 34.4048L51.4048 42.1357C45.8117 46.7119 41.7555 49 39.2363 49C38.959 49 38.8203 48.8498 38.8203 48.5493C38.8203 48.1333 39.0514 47.8791 39.5137 47.7866C40.9697 47.5093 42.2987 47.0355 43.5005 46.3652C45.0028 45.5332 48.1922 43.1873 53.0688 39.3276L63.6772 30.418C64.1395 30.2562 64.7635 30.1753 65.5493 30.1753C66.3351 30.1753 66.728 30.626 66.728 31.5273C66.728 32.498 64.8675 35.1213 61.1465 39.397C57.4255 43.6496 55.5649 46.1572 55.5649 46.9199ZM70.2988 41.7197C64.1279 46.5732 59.8753 49 57.541 49C57.2637 49 57.125 48.8498 57.125 48.5493C57.125 48.1333 57.4023 47.8791 57.957 47.7866C60.1296 47.4399 63.1341 45.7643 66.9707 42.7598L71.4429 39.2583L78.6191 33.5381C81.901 31.2731 84.7091 30.1406 87.0435 30.1406C88.7769 30.1406 89.7476 31.0073 89.9556 32.7407C90.8569 31.8856 91.481 31.458 91.8276 31.458C92.5903 31.458 92.9717 31.77 92.9717 32.394C92.9717 33.203 91.1921 35.6759 87.6328 39.813C84.0967 43.95 82.3286 46.3652 82.3286 47.0586C82.3286 47.5439 82.71 47.7982 83.4727 47.8213C84.2354 47.8444 84.6167 48.0409 84.6167 48.4106C84.6167 48.8729 83.8309 49.104 82.2593 49.104C80.7108 49.104 79.9365 48.4222 79.9365 47.0586C79.9365 45.9723 80.5605 44.4238 81.8086 42.4131L77.5098 46.0532C75.4066 47.6248 73.731 48.4106 72.4829 48.4106C70.4953 48.4106 69.5015 47.4053 69.5015 45.3945C69.5015 44.2852 69.7673 43.0602 70.2988 41.7197ZM87.5288 31.562C86.1652 31.562 83.3455 33.5959 79.0698 37.6636C74.7941 41.7313 72.6562 44.4469 72.6562 45.8105C72.6562 46.4346 72.9567 46.7466 73.5576 46.7466C74.875 46.7466 77.6947 44.759 82.0166 40.7837C86.3617 36.7853 88.5342 34.0928 88.5342 32.7061C88.5342 31.9434 88.1991 31.562 87.5288 31.562ZM97.5132 41.1997C94.2544 43.742 92.1628 45.3136 91.2383 45.9146C88.1875 47.9715 85.8185 49 84.1313 49C83.8309 49 83.6807 48.8613 83.6807 48.584C83.6807 48.1911 83.958 47.9253 84.5127 47.7866C86.9626 47.2088 90.0018 45.5101 93.6304 42.6904L103.337 34.9595C108.006 31.5389 111.531 29.8286 113.911 29.8286C115.876 29.8286 116.835 30.9264 116.789 33.1221C117.875 31.874 118.649 31.25 119.111 31.25C119.782 31.25 120.117 31.6313 120.117 32.394C120.117 33.1105 116.234 38.2876 108.468 47.9253C108.607 47.9253 108.873 47.9137 109.266 47.8906C109.589 47.8675 109.843 47.856 110.028 47.856C110.329 47.856 110.479 48.0409 110.479 48.4106C110.479 48.8035 110.028 49.0462 109.127 49.1387L107.324 49.2427C96.0687 63.2023 87.7946 70.1821 82.502 70.1821C80.3294 70.1821 79.2432 69.2692 79.2432 67.4434C79.2432 64.5312 81.4041 61.0991 85.7261 57.147C90.048 53.2179 96.0687 50.3405 103.788 48.5146C105.776 46.2959 107.382 44.2736 108.607 42.4478C106.25 44.5047 104.759 45.7643 104.135 46.2266C102.055 47.752 100.298 48.5146 98.8652 48.5146C97.1781 48.5146 96.3345 47.4977 96.3345 45.4639C96.3345 44.1696 96.7274 42.7482 97.5132 41.1997ZM115.506 32.5674C115.506 31.7354 115.125 31.3193 114.362 31.3193C112.883 31.3193 110.028 33.3532 105.799 37.4209C101.592 41.4655 99.4893 44.2967 99.4893 45.9146C99.4893 46.4924 99.7088 46.7812 100.148 46.7812C101.442 46.7812 104.297 44.8283 108.711 40.9224C113.241 36.9009 115.506 34.1159 115.506 32.5674ZM102.54 50.2134C97.3861 51.4614 92.417 54.05 87.6328 57.979C82.8486 61.9312 80.4565 65.0513 80.4565 67.3394C80.4565 68.3101 80.8841 68.7954 81.7393 68.7954C83.6807 68.7954 87.2977 66.2069 92.5903 61.0298C96.5425 57.1701 99.859 53.5646 102.54 50.2134ZM141.611 22.895C140.501 22.895 139.947 22.3288 139.947 21.1963C139.947 20.2487 140.513 19.3936 141.646 18.6309C142.662 17.9375 143.679 17.5908 144.696 17.5908C145.898 17.5908 146.499 18.2495 146.499 19.5669C146.499 20.5145 145.898 21.3234 144.696 21.9937C143.656 22.5946 142.628 22.895 141.611 22.895ZM126.288 46.9199C126.288 47.5439 126.958 47.856 128.298 47.856C128.599 47.856 128.749 48.0409 128.749 48.4106C128.749 48.8498 127.986 49.0693 126.461 49.0693C124.728 49.0693 123.861 48.2373 123.861 46.5732C123.861 44.6318 126.438 40.5757 131.592 34.4048L122.127 42.1357C116.534 46.7119 112.478 49 109.959 49C109.682 49 109.543 48.8498 109.543 48.5493C109.543 48.1333 109.774 47.8791 110.236 47.7866C111.692 47.5093 113.021 47.0355 114.223 46.3652C115.725 45.5332 118.915 43.1873 123.792 39.3276L134.4 30.418C134.862 30.2562 135.486 30.1753 136.272 30.1753C137.058 30.1753 137.451 30.626 137.451 31.5273C137.451 32.498 135.59 35.1213 131.869 39.397C128.148 43.6496 126.288 46.1572 126.288 46.9199ZM146.984 37.8022L138.421 44.2505C133.799 47.4168 130.413 49 128.264 49C127.986 49 127.848 48.8613 127.848 48.584C127.848 48.1449 128.275 47.856 129.13 47.7173C130.101 47.5786 131.222 47.1626 132.493 46.4692C134.019 45.6603 136.619 43.8923 140.293 41.165C142.974 39.2236 145.806 37.0742 148.787 34.7168C152.231 29.5628 156.969 23.9697 163.001 17.9375C169.703 11.235 174.199 7.88379 176.487 7.88379C177.55 7.88379 178.082 8.45003 178.082 9.58252C178.082 12.4946 174.661 17.1517 167.82 23.5537C163.498 27.5752 158.795 31.4696 153.71 35.2368C152.531 36.1151 151.064 37.9756 149.307 40.8184C147.481 43.7305 146.568 45.7874 146.568 46.9893C146.568 47.5671 147.204 47.856 148.475 47.856C148.776 47.856 148.926 48.0409 148.926 48.4106C148.926 48.8729 148.325 49.104 147.123 49.104C145.228 49.104 144.28 48.1333 144.28 46.1919C144.28 44.2967 145.182 41.5002 146.984 37.8022ZM176.244 8.9585C175.343 8.9585 171.772 12.4831 165.532 19.5322C159.592 26.2809 155.813 30.9149 154.195 33.4341C169.311 21.1616 176.868 13.188 176.868 9.51318C176.868 9.14339 176.66 8.9585 176.244 8.9585ZM161.372 43.3838C160.216 43.6611 158.043 44.7243 154.854 46.5732C152.034 48.1911 149.896 49 148.44 49C148.163 49 148.024 48.8498 148.024 48.5493C148.024 48.1333 148.325 47.8791 148.926 47.7866C150.336 47.5555 152.323 46.6888 154.889 45.1865C157.708 43.5687 160.008 42.5518 161.788 42.1357C162.851 39.5703 165.046 36.8778 168.375 34.0581C171.911 31.0304 174.927 29.5166 177.423 29.5166C179.272 29.5166 180.196 30.3024 180.196 31.874C180.196 33.931 178.243 36.1729 174.337 38.5996C171.472 40.4023 168.536 41.8122 165.532 42.8291C165.208 43.5687 165.046 44.3429 165.046 45.1519C165.046 46.3537 165.462 47.1395 166.294 47.5093C166.71 47.6711 167.496 47.7751 168.652 47.8213C169.484 47.8444 169.9 48.0409 169.9 48.4106C169.9 48.9884 168.479 49.2773 165.636 49.2773C162.631 49.2773 161.129 47.9715 161.129 45.3599C161.129 44.759 161.21 44.1003 161.372 43.3838ZM165.948 41.4424C168.074 40.4023 170.316 38.9925 172.673 37.2129C175.817 34.8786 177.388 33.0296 177.388 31.666C177.388 31.1113 177.134 30.834 176.625 30.834C175.123 30.834 173.078 32.2207 170.489 34.9941C168.178 37.5133 166.664 39.6628 165.948 41.4424ZM197.53 40.5063C196.814 40.3677 196.456 39.9054 196.456 39.1196C196.456 37.6174 197.449 35.6413 199.437 33.1914C201.425 30.7184 203.123 29.4819 204.533 29.4819C205.342 29.4819 205.747 29.9095 205.747 30.7646C205.747 33.0296 203.366 36.612 198.605 41.5117C193.775 46.4577 190.123 48.9307 187.65 48.9307C185.708 48.9307 184.738 47.8791 184.738 45.7759C184.738 43.9731 185.732 41.7082 187.719 38.981L192.573 32.9834C190.308 35.0866 187.245 37.6636 183.386 40.7144L176.938 45.7065C173.702 47.9022 171.183 49 169.38 49C169.103 49 168.964 48.8613 168.964 48.584C168.964 48.1449 169.253 47.8791 169.831 47.7866C170.639 47.6479 171.645 47.3244 172.847 46.8159C174.257 46.215 177.434 43.9385 182.38 39.9863C184.622 38.2298 187.869 35.4795 192.122 31.7354C193.671 30.21 194.826 29.4473 195.589 29.4473C196.906 29.4473 197.565 30.106 197.565 31.4233C197.565 32.2785 195.97 34.5897 192.781 38.3569C189.591 42.1011 187.997 44.6549 187.997 46.0186C187.997 46.735 188.332 47.0933 189.002 47.0933C190.574 47.0933 193.416 44.8976 197.53 40.5063ZM198.536 39.501C199.437 38.5996 200.489 37.34 201.69 35.7222C203.146 33.7345 203.875 32.394 203.875 31.7007L203.597 31.4233C202.904 31.4233 201.771 32.4518 200.2 34.5088C198.651 36.5426 197.877 37.9756 197.877 38.8076C197.877 39.1774 198.097 39.4085 198.536 39.501ZM268.53 30.6953C268.53 33.1683 266.704 36.0688 263.053 39.397C259.239 42.8869 254.617 45.6025 249.186 47.5439C244.032 49.3698 238.75 50.2827 233.342 50.2827C225.993 50.2827 222.318 48.0755 222.318 43.6611C222.318 41.0264 224.386 38.6227 228.523 36.4502C232.129 34.5319 235.411 33.5728 238.369 33.5728C239.317 33.5728 239.791 33.8617 239.791 34.4395C239.791 34.8324 239.305 35.0981 238.334 35.2368C235.515 35.6759 232.788 36.4849 230.153 37.6636C226.455 39.2814 224.606 41.0957 224.606 43.1064C224.606 45.5563 227.46 46.7812 233.169 46.7812C237.814 46.7812 242.795 45.8568 248.111 44.0078C253.542 42.1126 257.991 39.6974 261.458 36.7622C264.832 33.8963 266.52 31.7469 266.52 30.314C266.52 28.9041 264.243 27.9334 259.69 27.4019C252.155 26.5236 247.938 25.9805 247.036 25.7725C242.483 24.6631 240.207 22.6986 240.207 19.8789C240.207 16.2965 242.876 12.8875 248.215 9.65186C252.583 6.99398 258.141 4.75212 264.89 2.92627C270.807 1.33154 275.545 0.53418 279.104 0.53418C283.657 0.53418 285.934 1.94401 285.934 4.76367C285.934 7.19043 283.819 10.0448 279.589 13.3267C275.499 16.493 272.159 18.0762 269.57 18.0762C267.49 18.0762 266.45 17.3597 266.45 15.9268C266.45 14.7249 267.64 13.3151 270.021 11.6973C272.286 10.1719 274.054 9.40918 275.325 9.40918C275.764 9.40918 275.984 9.54785 275.984 9.8252L272.413 11.7666C270.033 13.0609 268.796 14.0085 268.704 14.6094C268.819 14.7712 269.016 14.8521 269.293 14.8521C270.957 14.8521 273.696 13.7427 277.509 11.5239C281.554 9.1665 283.576 7.2251 283.576 5.69971C283.576 4.35921 281.958 3.68896 278.723 3.68896C275.025 3.68896 269.813 4.75212 263.087 6.87842C258.557 8.31136 254.582 9.83675 251.162 11.4546C245.245 14.228 242.287 16.7357 242.287 18.9775C242.287 20.4105 244.159 21.4736 247.903 22.167L259.031 23.623C263.376 24.2702 266.023 25.2178 266.97 26.4658C268.01 27.8757 268.53 29.2855 268.53 30.6953Z" fill="black" fill-opacity="0.32"/>
</svg>
