<svg width="67" height="67" viewBox="0 0 67 67" fill="none" xmlns="http://www.w3.org/2000/svg">
<path fill-rule="evenodd" clip-rule="evenodd" d="M64.3535 2.38498e-08C65.4581 1.06779e-08 66.3535 0.89543 66.3535 2L66.3535 6L66.3535 60.3535L66.3535 64.9712C66.3535 65.7346 65.7346 66.3535 64.9712 66.3535C64.2077 66.3535 63.5888 65.7346 63.5888 64.9712L63.5888 4.30381C63.5888 3.19924 62.6934 2.30381 61.5888 2.30381L1.1519 2.30381C0.515717 2.30381 -7.60807e-06 1.78809 -7.61566e-06 1.15191C-7.62324e-06 0.515727 0.515717 7.85108e-07 1.1519 7.77521e-07L5.99999 7.19709e-07L60.3535 7.15493e-08L64.3535 2.38498e-08Z" fill="#DCC96C"/>
</svg>
