<svg width="144" height="144" viewBox="0 0 144 144" fill="none" xmlns="http://www.w3.org/2000/svg">
<path fill-rule="evenodd" clip-rule="evenodd" d="M6 138C6 138.552 6.44771 139 7 139L142 139C143.105 139 144 139.895 144 141L144 142C144 143.105 143.105 144 142 144L138 144L6 144L2 144C0.895431 144 1.06779e-08 143.105 2.38498e-08 142L7.15493e-08 138L1.64563e-06 6L1.69333e-06 2C1.7065e-06 0.895432 0.895432 1.06779e-08 2 2.38498e-08L4 4.76995e-08C5.10457 6.08714e-08 6 0.895432 6 2L6 6L6 138Z" fill="#DCC96C"/>
</svg>
