<svg width="36" height="20" viewBox="0 0 36 20" fill="none" xmlns="http://www.w3.org/2000/svg">
<path fill-rule="evenodd" clip-rule="evenodd" d="M17.5876 19.9771H19.743C19.743 19.9771 20.3717 19.8891 20.7309 19.5371C21.0453 19.2291 21.0453 18.613 21.0453 18.613C21.0453 18.613 21.0004 15.7969 22.3475 15.3568C23.6497 14.9608 25.3561 18.085 27.1523 19.2731C28.4994 20.1971 29.5322 19.9771 29.5322 19.9771L34.337 19.9331C34.337 19.9331 36.8517 19.8011 35.6392 17.865C35.5494 17.689 34.9657 16.4129 32.0918 13.8168C29.0832 11.0886 29.4873 11.5286 33.1246 6.77637C35.3249 3.91622 36.223 2.15612 35.9536 1.36407C35.6841 0.660036 34.0676 0.836046 34.0676 0.836046L28.679 0.880049C28.679 0.880049 28.2749 0.836046 27.9606 1.01206C27.6013 1.23207 27.4217 1.62809 27.4217 1.62809C27.4217 1.62809 26.5685 3.87221 25.4459 5.76432C23.0211 9.76854 22.0781 9.98855 21.6739 9.72454C20.7758 9.15251 21.0004 7.39241 21.0004 6.16034C21.0004 2.28813 21.5841 0.660036 19.8328 0.264014C19.2491 0.132007 18.8 0.0440024 17.3182 0C15.3873 0 13.7707 0 12.8277 0.440024C12.1991 0.748042 11.75 1.40808 12.0195 1.40808C12.3787 1.45208 13.187 1.62809 13.5911 2.20012C14.13 2.94816 14.13 4.57625 14.13 4.57625C14.13 4.57625 14.4443 9.15251 13.3666 9.72454C12.6481 10.1206 11.6602 9.32852 9.5048 5.67631C8.42709 3.82821 7.5739 1.7601 7.5739 1.7601C7.5739 1.7601 7.39428 1.36408 7.12485 1.18807C6.90033 1.01206 6.45129 0.880049 5.95734 0.880049L1.15255 0.924051C1.15255 0.924051 0.389173 0.924051 0.119745 1.27607C-0.149682 1.58409 0.119745 2.15612 0.119745 2.15612C0.119745 2.15612 4.16115 11.3526 8.69651 15.9729C12.8726 20.2851 17.5876 19.9771 17.5876 19.9771Z" fill="white"/>
</svg>
