<svg width="43" height="26" viewBox="0 0 43 26" fill="none" xmlns="http://www.w3.org/2000/svg">
<path d="M41.9032 23.0018C40.2185 19.97 35.8788 16.3268 34.0872 14.7415C33.5969 14.3075 33.5444 13.5565 33.9907 13.0765C37.4097 9.40245 40.1444 5.18089 41.0857 2.62995C41.501 1.50308 40.6413 0.312453 39.43 0.312453H35.9116C34.7519 0.312453 34.0732 0.728703 33.7497 1.39152C30.9082 7.21433 28.4707 9.73433 26.7644 11.2071C25.8091 12.0321 24.3194 11.3487 24.3194 10.0934C24.3194 7.67464 24.3194 4.54808 24.3194 2.33089C24.3194 1.25558 23.44 0.385579 22.3554 0.385579L15.9278 0.312453C15.1188 0.312453 14.6566 1.22839 15.1422 1.87058L16.2035 3.39402C16.6029 3.92183 16.8185 4.56402 16.8185 5.22308L16.8128 12.0837C16.8128 13.2771 15.3663 13.8603 14.5075 13.024C11.6022 10.1946 9.08129 4.41683 8.17379 1.65402C7.91129 0.854328 7.16223 0.314328 6.31285 0.312453L2.84692 0.304016C1.5466 0.304016 0.595978 1.53683 0.949415 2.77808C4.11629 13.894 10.6141 24.469 22.1941 25.6156C23.335 25.7281 24.3194 24.8093 24.3194 23.6721V20.0665C24.3194 19.0324 25.1303 18.1437 26.1728 18.1175C26.2094 18.1165 26.246 18.1165 26.2825 18.1165C29.3453 18.1165 32.7757 22.5743 33.9757 24.6593C34.3207 25.2593 34.9657 25.625 35.6632 25.625H40.3254C41.6857 25.625 42.5585 24.1821 41.9032 23.0018Z" fill="#7E7D7C"/>
</svg>
